<svg xmlns="http://www.w3.org/2000/svg" width="80" height="80" viewBox="0 0 80 80">
    <g fill="#264050">
        <path d="M67.87 23.529L72.157 19.608 67.87 15.686 65.882 17.504 68.182 19.608 65.882 21.711zM60.392 11.818L62.496 14.118 64.314 12.13 60.392 7.843 56.471 12.13 58.289 14.118zM34.091 34.51L29.804 38.431 34.091 42.353 36.078 40.535 33.779 38.431 36.078 36.328zM45.49 45.909L43.672 43.922 41.569 46.221 39.465 43.922 37.647 45.909 41.569 50.196z"/>
        <path d="M80 19.757L60.243 0l-36.42 36.42h-5.878v-7.69h-5.127c-2.828 0-5.127 2.299-5.127 5.127v2.563H0V80h79.47V36.42H63.336L80 19.757zM60.243 3.625l16.132 16.132-34.077 34.077-16.132-16.132L60.243 3.625zM10.254 33.857c0-1.414 1.15-2.564 2.564-2.564h2.563v23.072h-2.563c-.933 0-1.809.25-2.564.688V33.857zm-2.563 5.127v20.508c0 2.827 2.3 5.127 5.127 5.127h64.088v2.563H2.564V38.984H7.69zM2.564 77.436v-2.563h59.88l.756-2.564H2.564v-2.563h74.342v2.563H61.808l-.978 2.564h16.076v2.563H2.564zm74.342-38.452v23.071H12.818c-1.414 0-2.564-1.15-2.564-2.563 0-1.414 1.15-2.564 2.564-2.564h5.127V38.984h5.878l18.475 18.475 18.476-18.475h16.132z"/>
        <path d="M46.367 30.256c1.579 1.594 4.325 1.596 5.904 0l.717-.724c.654-.661 1.79-.661 2.445 0l.717.724-1.94 1.96c-.654.662-1.791.662-2.445 0l-.359-.362-1.729 1.75.359.363c.79.798 1.838 1.237 2.952 1.237.871 0 1.697-.276 2.395-.774l1.63 1.648 1.73-1.749-1.58-1.6 2.445-2.473-2.446-2.474c-1.578-1.594-4.325-1.596-5.904 0l-.716.724c-.654.661-1.792.661-2.446 0l-.716-.724 1.94-1.96c.653-.662 1.79-.662 2.445 0l.358.362 1.73-1.75-.36-.363c-1.405-1.42-3.734-1.567-5.343-.456l-1.635-1.654-1.729 1.749 1.581 1.598-2.445 2.474 2.445 2.474zM71.373 47.059L73.725 47.059 73.725 42.353 69.02 42.353 69.02 44.706 71.373 44.706zM73.725 54.902L71.373 54.902 71.373 57.255 69.02 57.255 69.02 59.608 73.725 59.608z"/>
    </g>
</svg>
