<svg xmlns="http://www.w3.org/2000/svg" width="80" height="80" viewBox="0 0 80 80">
    <g fill="#FFF">
        <path d="M68.284 11.716C60.73 4.16 50.684 0 40 0c-8.13 0-15.957 2.427-22.636 7.02-.71.488-.89 1.461-.402 2.172.49.711 1.462.891 2.173.402C25.29 5.362 32.505 3.125 40 3.125c20.333 0 36.875 16.542 36.875 36.875S60.333 76.875 40 76.875 3.125 60.333 3.125 40c0-7.496 2.237-14.71 6.469-20.864.489-.711.309-1.684-.402-2.173-.712-.488-1.684-.309-2.173.402C2.427 24.042 0 31.87 0 40c0 10.684 4.16 20.73 11.716 28.284C19.27 75.84 29.316 80 40 80c10.684 0 20.73-4.16 28.284-11.716C75.84 60.73 80 50.684 80 40c0-10.684-4.16-20.73-11.716-28.284z"/>
        <path d="M40 72.381c17.855 0 32.381-14.526 32.381-32.381 0-3.71-.63-7.276-1.783-10.598l-.01-.026C66.183 16.724 54.136 7.62 40 7.62 22.145 7.619 7.619 22.145 7.619 40S22.145 72.381 40 72.381zM69.237 40c0 .752-.028 1.498-.085 2.236-1.65.086-3.258.331-4.811.718.51-4.304-.132-8.72-1.839-12.69 1.813.31 3.618.656 5.415 1.04.858 2.748 1.32 5.67 1.32 8.696zM58.72 29.672c2.39 4.334 3.205 9.489 2.276 14.368-7.175 2.896-12.739 8.968-14.939 16.466-3.934 1.158-8.178 1.158-12.112 0-2.2-7.498-7.764-13.57-14.939-16.466-.93-4.878-.113-10.035 2.276-14.367C27.48 28.795 33.744 28.35 40 28.35c6.256 0 12.52.445 18.719 1.322zm-43.06 13.282c-1.553-.387-3.161-.632-4.811-.718-.057-.738-.085-1.484-.085-2.236 0-3.027.462-5.948 1.32-8.696 1.797-.384 3.602-.73 5.415-1.04-1.707 3.97-2.35 8.386-1.839 12.69zm-4.392 2.46c11.488.901 20.56 10.536 20.56 22.251 0 .135-.003.27-.006.406-10.461-3.053-18.514-11.807-20.554-22.657zm23.677 23.384c.016-.378.026-.757.026-1.133 0-1.264-.094-2.506-.273-3.721 1.742.383 3.522.575 5.303.575 1.78 0 3.561-.192 5.303-.575-.179 1.215-.273 2.457-.273 3.721 0 .377.01.755.026 1.133-1.642.288-3.332.44-5.056.44-1.724 0-3.413-.152-5.056-.44zm13.235-.727c-.003-.135-.005-.27-.005-.406 0-11.714 9.072-21.35 20.559-22.251-2.04 10.85-10.093 19.604-20.554 22.657zM40 10.763c11.776 0 21.947 7 26.575 17.056-8.74-1.733-17.665-2.613-26.575-2.613s-17.836.88-26.575 2.613C18.053 17.762 28.224 10.763 40 10.763z"/>
        <path d="M32.381 40c0 4.201 3.418 7.619 7.619 7.619s7.619-3.418 7.619-7.619-3.418-7.619-7.619-7.619-7.619 3.418-7.619 7.619zM40 35.429c2.52 0 4.571 2.05 4.571 4.571 0 2.52-2.05 4.571-4.571 4.571-2.52 0-4.571-2.05-4.571-4.571 0-2.52 2.05-4.571 4.571-4.571zM13.333 15.238c.488 0 .975-.186 1.347-.558.744-.744.744-1.95 0-2.694-.743-.743-1.949-.743-2.693 0v.001c-.745.744-.744 1.95 0 2.693.371.372.859.558 1.346.558z"/>
    </g>
</svg>
